<?xml version="1.0" encoding="UTF-8"?>
<svg width="74px" height="100px" viewBox="0 0 74 100" version="1.1" xmlns="http://www.w3.org/2000/svg" xmlns:xlink="http://www.w3.org/1999/xlink">
    <title>number</title>
    <defs>
        <path d="M2.84936142,98.1727882 C-1.71970539,97.2023477 -0.0938591786,87.7638433 2.84936142,84.1290548 C9.69946483,75.6693744 35.9878582,54.8824171 43.949989,47.4147159 C46.4991803,45.0238295 49.1987712,41.8975402 50.6221689,39.3228549 C51.8457351,37.1096412 52.5221341,34.4966835 52.4903825,31.9666111 C52.457019,29.3083328 51.7175231,25.8030012 50.4220093,23.373199 C49.1264884,20.9433969 47.0636782,18.753208 44.7172925,17.3878695 C42.3709068,16.022531 39.2127425,15.1642978 36.3437094,15.181025 C33.4746693,15.1977521 29.9717725,16.0837925 27.5030658,17.4881611 C25.0343592,18.8925297 22.8603397,21.2164646 21.5314624,23.6072367 C20.2025922,25.9980087 22.1048183,30.6909417 19.5298091,31.832858 C16.4383646,33.2037937 5.02337948,34.6304581 2.98280474,31.832858 C0.942229284,29.0352579 4.58968817,19.6950771 7.28635927,15.047279 C9.98303321,10.3994808 14.3420982,6.41405048 19.1628391,3.94600452 C24.0613331,1.43821363 31.0003997,-0.0274879926 36.6773159,0 C42.3542251,0.0282692874 48.542677,1.53292953 53.2243225,4.11320488 C57.9059679,6.69348024 62.1428047,10.8062945 64.7671958,15.4819713 C67.391587,20.1576481 68.5814544,27.4581346 68.9706691,32.1672372 C69.2924508,36.0605394 68.3423683,40.3705556 67.1024556,43.736594 C65.9187502,46.9500434 63.7446023,49.7534622 61.5311857,52.3634605 C59.0735978,55.2613736 55.4938822,58.2891512 52.3569356,61.12408 C45.968324,66.8976106 28.5495658,80.484373 23.4453493,84.1290548 C22.2877612,84.955635 26.7066067,84.3120888 28.7945572,84.1290548 C36.4230815,83.4603034 61.0974958,80.4620772 68.9706691,82.9921782 C73.7782016,84.5371195 73.8918143,97.042952 68.9706691,98.1727882 C57.9504502,100.702889 13.8695818,100.51341 2.84936142,98.1727882 Z" id="path-1"></path>
    </defs>
    <g id="website" stroke="none" stroke-width="1" fill="none" fill-rule="evenodd">
        <g transform="translate(-129.000000, -2322.000000)" id="the-product">
            <g transform="translate(-10.149503, 1449.000000)">
                <g id="care-organisations" transform="translate(140.000000, 871.000000)">
                    <g id="texture" transform="translate(0.000000, 2.000000)">
                        <mask id="mask-2" fill="white">
                            <use xlink:href="#path-1"></use>
                        </mask>
                        <use id="Mask" fill="#02B0B2" xlink:href="#path-1"></use>
                        <path d="M97.9336182,84.2956228 C97.1318233,84.8846265 96.2565622,85.3532835 95.3384625,85.7142857 C96.0851713,81.6166061 95.9444083,76.1509179 94.2857143,71.5655243 C96.8319169,68.487524 98.300858,66.0111816 99.3964815,62.8571429 C101.257139,65.3651775 102.505773,68.4115236 102.799565,72.16722 C103.203529,77.3985797 101.471368,81.7116067 97.9336182,84.2956228 Z M78.8954782,99.8901891 C71.3239176,100.260533 66.4002112,99.8841023 62.8571429,95.7436553 C63.41194,94.408046 63.8532396,93.0056253 64.1621474,91.5425076 C64.1684833,91.5242763 64.1684833,91.5121281 64.1747624,91.4939332 C66.8226166,91.1114391 68.8526173,90.4497194 69.7226203,90.1279479 C71.1348055,90.121883 74.7282773,89.6969159 80.4085459,85.7142857 C82.1800611,86.9285009 84.1028813,87.863454 85.8744154,88.6284058 C87.6081045,89.3751444 89.5057324,89.7636852 91.4285714,89.8183246 C89.4111668,95.7436553 86.0320184,99.5441359 78.8954782,99.8901891 Z M44.0978397,106.683427 C36.5359287,108.197363 29.1412162,105.889822 25.6791902,100.938956 C25.1341925,100.163683 24.6697005,99.3883829 24.2857143,98.6069913 C27.357567,97.4837506 30.4603735,95.5241509 33.5383947,92.4046937 C36.7712589,89.1326231 39.4405457,85.4026869 41.4904975,81.4285714 C42.735336,82.9730372 44.0978397,84.517503 45.6709254,86.0680857 C49.0214733,89.3706855 52.7374092,90.9456805 56.236576,91.5988823 C56.9425852,93.424155 57.7229318,94.9991519 58.5714286,96.3360865 C55.772084,101.641012 50.6502981,105.370943 44.0978397,106.683427 Z M23.0654353,95.7142857 C22.7237102,93.7994665 22.8016456,91.8974229 23.305267,90.0209001 C24.4204285,85.9040579 27.4121912,82.4956796 30.7396714,80 C32.8381177,80.6893349 34.9844799,80.9382806 37.1428571,80.7467795 C35.3921794,84.1551577 33.2278127,87.3656968 30.625763,90.2124011 C28.1076563,92.9697408 25.58356,94.7122034 23.0654353,95.7142857 Z M19.4697575,89.5293757 C18.7658869,91.9784091 18.6856271,94.4832863 19.1919138,96.9819138 C14.4562168,97.6329371 9.77610696,96.2192921 5.28739441,94.3530708 C-4.86317555,90.1307807 -16.4461696,81.3576291 -13.9394037,63.5199142 C-13.0688251,57.3073609 -9.69765529,52.3844813 -5.01753808,48.5714286 C-3.3504724,51.504071 -1.21416026,53.8663152 1.31730484,55.5961475 C-1.11537758,59.8370082 -2.01064543,65.0079049 -0.96719059,69.348017 C0.236800467,74.3638798 3.27456526,78.5551705 7.36811003,80.8306069 C11.9432875,83.3726606 17.7532949,83.5834769 24.1807449,81.4320305 C24.2116226,81.4196241 24.2486685,81.4072176 24.2857143,81.3948484 C21.9641823,83.8686575 20.2971203,86.6401279 19.4697575,89.5293757 Z M-3.68694691,24.115647 C-1.23101269,18.3195567 3.15764839,14.3401495 8.34649411,13.2093569 C9.42365047,12.9745599 10.5192909,12.8571429 11.6333786,12.8571429 C12.9690724,12.8571429 14.3293625,13.0301727 15.7142857,13.3638306 C13.7446294,18.5543722 13.172176,24.2206995 14.3232134,30.875673 C12.6736221,32.8653859 11.1655884,34.7994675 9.8422112,36.6717633 C4.8749532,38.1176762 -0.0307403436,40.1444643 -4.33324258,42.8571429 C-6.35830318,36.9745377 -6.167494,29.9611585 -3.68694691,24.115647 Z M20.3898988,14.2857143 C22.6178128,15.2582215 24.8771819,16.6475122 27.1428571,18.4219865 C25.1163428,20.3732716 23.0394738,22.4698437 20.8870824,24.7558249 C20.1318573,25.5641384 19.4081062,26.3535073 18.6969297,27.1428571 C18.2878431,22.394046 18.8857359,18.2072862 20.3898988,14.2857143 Z M32.5410706,-2.93385674 C38.0442126,-8.36850922 45.0964895,-10.854526 51.8739334,-9.73797074 C57.2021988,-8.86203354 61.5497345,-5.85166104 64.2857143,-1.2497892 C53.454307,-0.842633493 42.6603598,3.78392566 29.3428634,15.7142857 C26.5569242,13.4996999 23.90218,11.9266513 21.4285714,10.8594706 C23.9334,6.21438673 27.7312699,1.8160835 32.5410706,-2.93385674 Z M91.2782252,52.0171627 C92.8635437,47.5681213 92.9546347,42.9310345 91.3511308,39.7477605 C88.3809523,33.8449063 85.2589495,30.5801767 81.5356076,29.4647628 C79.0878129,28.7253269 76.4820895,29.0073292 73.7670351,30.2793943 C73.2993351,29.4334438 72.831635,28.7378658 72.4003969,28.2303143 C72.1149336,27.8981942 71.7808543,27.5597952 71.4285714,27.2276938 C78.5897553,25.1222172 87.0021602,25.0533004 91.3571805,28.0423065 C97.649802,32.3723133 100.01866,42.1164218 97.6983815,54.1038404 C97.5890504,54.6678074 97.4797194,55.2067154 97.3764562,55.7142857 C95.3902936,54.1852961 93.2826461,52.9821853 91.2782252,52.0171627 Z M91.9385937,67.9948295 C90.9757062,66.5228472 89.8377657,65.4103899 88.5714286,64.6642135 C88.8807255,64.5488896 89.2016822,64.4335657 89.5051143,64.3114653 C91.7460162,63.4228588 93.8235423,62.4867348 95.7142857,61.4285714 C94.9556704,63.985864 93.9460741,66.088719 92.2478907,68.5714286 C92.1370361,68.3882779 92.0553132,68.1780005 91.9385937,67.9948295 Z M46.7976071,77.1428571 C49.77975,78.9672356 52.3690536,82.4242486 54.2857143,87.1428571 C52.202375,86.4007607 50.107125,85.1700928 48.1785536,83.1601855 C46.7142857,81.6450278 45.4166607,80.1360853 44.2857143,78.6456401 C45.1666607,78.2065677 45.9940357,77.6870872 46.7976071,77.1428571 Z M38.5714286,69.3877638 C39.5131368,69.1938662 40.4676446,68.9183718 41.4285714,68.5714286 C41.2107678,69.5000187 40.9609268,70.4285783 40.6406115,71.346944 C40.2882973,71.352041 39.9359446,71.4030715 39.5836112,71.4285714 C39.1928215,70.7448941 38.8404689,70.0612473 38.5714286,69.3877638 Z M35.7698333,76.6833143 C36.5873095,76.4690429 37.3888571,76.2976143 38.1825476,76.1595286 C38.3174286,76.3023714 38.4285714,76.4404571 38.5714286,76.5738 C38.5634762,76.5785714 38.5555476,76.5785714 38.547619,76.5785714 C37.5952143,76.6690429 36.6507857,76.6976143 35.7142857,76.6976143 C35.7301667,76.6928429 35.7539524,76.6880857 35.7698333,76.6833143 Z M23.9994717,73.1793223 C23.6084999,72.8134963 23.2297701,72.4541201 22.8571429,72.1075664 C24.1705104,71.1064305 25.4533464,69.906315 26.6812037,68.5714286 C28.6299049,69.906315 30.7068531,70.6635926 32.8571429,70.9074509 C31.4154917,72.6915479 29.5462164,74.3280709 27.2371116,75.7142857 C26.1436405,75.0211783 25.0684956,74.1804775 23.9994717,73.1793223 Z M3.37828362,61.4285714 C4.50855517,66.7037877 7.83900478,70.2306833 10.4380926,72.5174403 C12.4931697,74.3262508 15.0257635,75.0098406 17.7819745,74.4895712 C18.6886289,74.3202073 19.5952832,74.0177226 20.5019375,73.6063455 C21.1365955,74.1871227 21.8014814,74.7799689 22.4845004,75.3909819 C23.0768358,75.9172767 23.6812841,76.4073103 24.2857143,76.8610283 C23.8988812,77.0062181 23.5241247,77.1695385 23.1191584,77.3026412 C17.73967,79.0933029 13.182227,78.9904904 9.56770445,76.9820077 C6.44879543,75.2518538 4.11568372,72.0153197 3.17276322,68.1012575 C2.67711343,66.062539 2.77987363,63.7152922 3.37828362,61.4285714 Z M2.4650236,51.4285714 C-0.04786219,49.7843301 -1.76178367,47.7012535 -2.85714286,45.8697625 C0.190533352,44.0733973 3.60548715,42.6046971 7.14285714,41.4285714 C4.84903701,44.9745202 3.29618957,48.303939 2.4650236,51.4285714 Z M17.4660532,38.5714286 C17.8027353,39.0938741 18.196611,39.5671065 18.5714286,40.0526744 C17.6248651,40.943878 16.6719553,42.0194698 15.7063527,43.3655222 C14.7597893,44.6931174 13.9593451,45.9223599 13.2351336,47.1024445 C13.2351336,47.1024445 13.0890144,47.1024445 13.0890144,47.1024445 C10.9989592,47.1639195 8.99784857,47.6679079 7.14285714,48.5714286 C8.33717713,45.7994283 10.0460494,42.8369365 12.269512,39.6961967 C14.0038078,39.2536465 15.7444501,38.8725898 17.4660532,38.5714286 Z M64.6881,23.8357286 C64.8404714,23.5785714 64.9880857,23.3261857 65.1357143,23.0642857 C65.2214143,23.4166714 65.2785714,23.7547571 65.3119,24.0785714 C65.1071286,23.9928714 64.8976,23.9119 64.6881,23.8357286 Z M59.1303568,39.6097113 C58.958376,39.7440878 58.7556989,39.8656427 58.5714286,40 C58.9644932,37.7351204 59.6032577,35.7389554 60.6657648,34.2226377 C61.8019911,32.6103697 63.5830807,31.1963939 65.7142857,30 C64.590349,33.6148438 62.2687565,37.1081135 59.1303568,39.6097113 Z M72.2581989,48.1191654 C71.8771965,49.3826382 71.2826251,50.4881541 70.5263701,51.4721956 C69.7470472,51.8791879 69.0196965,52.3408127 68.3731355,52.8571429 C66.3641969,47.9369538 66.3757482,41.571062 71.7732868,37.1428571 C72.8066171,40.3865494 73.3492683,44.5292364 72.2581989,48.1191654 Z M84.2857143,61.4285714 C86.3524207,59.8569907 88.1117298,57.9361938 89.5048186,55.7142857 C91.1594708,56.4248209 92.7814743,57.2015611 94.2857143,58.1168172 C92.4151952,58.9116397 90.3354017,59.640239 88.0398003,60.3627868 C86.6925258,60.7842956 85.4629559,61.1275144 84.2857143,61.4285714 Z M64.4672997,58.8467614 C64.7823746,58.7629566 65.0707741,58.661213 65.3644926,58.5714286 C65.4178916,59.3076606 65.5887909,60.0439106 65.9038818,60.7621677 C66.2616855,61.55825 66.6889096,62.2406114 67.1428571,62.8571429 C66.5073562,62.8092519 65.9038818,62.743404 65.3591415,62.64764 C65.065423,61.366722 64.7129383,60.1157201 64.2857143,58.8946344 C64.3444644,58.8766955 64.4085656,58.8647183 64.4672997,58.8467614 Z M72.3879753,54.1133392 C74.2141032,53.3537774 76.4249586,52.8571429 78.6052895,52.8571429 C79.8450916,52.8571429 81.0726728,53.0148992 82.2086252,53.3654514 C83.3629363,53.7218755 84.5355512,54.1191937 85.7142857,54.5457143 C84.2973455,56.7543032 81.6834036,59.757511 77.2250118,61.4285714 C74.3362383,60.2015776 71.8505512,58.3785977 70,56.1057493 C70.9344458,55.4864154 71.7161952,54.8086415 72.3879753,54.1133392 Z M57.1428571,48.1539678 C57.1609903,47.1105549 57.1852041,46.0793154 57.2396579,45.0664 C58.4618554,44.4928058 59.5569759,43.8582165 60.4766463,43.1442899 C64.3610179,40.1482512 67.198642,35.8646733 68.4450534,31.4285714 C68.6568242,31.6360312 68.8504257,31.8373951 69.0319384,32.0448731 C69.3405099,32.4048752 69.6732953,32.8869404 70,33.4605347 C63.1388203,38.3725876 61.087745,46.4942532 64.8147996,54.6342429 C64.8571465,54.725772 64.8994934,54.8172827 64.9418403,54.9088118 C64.3005015,55.1468056 63.6168158,55.3542653 62.8907651,55.5251135 C62.5942822,55.598355 62.2978176,55.6593683 62.0073791,55.7142857 C61.67463,55.0613907 61.3236934,54.4023815 60.9485611,53.7494499 C59.8776544,51.8822572 58.601003,49.990663 57.1428571,48.1539678 Z M60.5878605,58.5796552 C60.8912962,59.5155911 61.1757305,60.4597537 61.4285714,61.4285714 C59.9620634,60.5172414 59.0834254,59.4499261 58.5714286,58.5714286 C59.2414676,58.6206897 59.9178215,58.6206897 60.5878605,58.5796552 Z M57.5071357,54.4071357 C57.6880929,54.6976214 57.8785786,54.9928643 58.0452357,55.28335 C58.1071357,55.3881071 58.1642929,55.4928643 58.2214214,55.5928643 C57.9738214,55.5833357 57.7357214,55.5547786 57.4928643,55.5261929 C57.4976214,55.1547643 57.5023929,54.7833357 57.5071357,54.4071357 Z M40.6564307,62.8571429 C40.9373878,63.2249681 41.1516878,63.6322024 41.2231021,64.0196927 C41.3469164,64.7159537 40.7135878,65.3333373 40.1897735,65.7142857 C40.3993021,64.7619245 40.5516735,63.8095238 40.6564307,62.8571429 Z M35.4264629,55.901328 C35.6918874,55.3647753 35.9160119,54.8282227 36.1165667,54.2857143 C36.3878659,54.7209121 36.6238283,55.15611 36.7653704,55.6151666 C36.9305175,56.1517192 37.0484899,56.7061569 37.1428571,57.2605947 C35.51492,57.6540666 34.3883522,58.941793 34.1406226,60.7899128 C33.9223906,62.4174558 33.9046956,64.0569282 34.0993403,65.7142857 C32.5952679,65.5771429 31.2327377,65.0763604 30,64.3430896 C32.1116114,61.7020702 33.9754755,58.7569864 35.4264629,55.901328 Z M23.6587252,59.2031444 C23.1462423,58.4349192 22.8900009,57.5117553 22.8571429,56.5111026 C26.2079926,55.600818 29.5719895,54.3548778 32.8571429,52.8571429 C32.6797449,53.3542445 32.4760724,53.8513075 32.2198112,54.3354911 C30.5772444,57.4923686 28.6521418,60.3910406 26.6219211,62.8571429 C25.47869,61.7273874 24.493146,60.4620412 23.6587252,59.2031444 Z M12.8571429,57.812554 C14.9487878,57.7809408 17.1059749,57.547196 19.3025227,57.1428571 C19.4533366,58.5390714 19.8860684,59.8594366 20.6532186,60.9903118 C21.7810081,62.6644688 22.9940103,64.1111733 24.2857143,65.3304822 C22.9415687,66.6318946 21.5908532,67.7311565 20.2729284,68.5714286 C15.6765773,64.4081256 13.1390804,61.3567072 12.8571429,57.812554 Z M9.94735515,54.2857143 C9.49808117,54.2283731 9.04177313,54.1996917 8.60652514,54.1208502 C7.58159584,53.9202096 6.61283368,53.6550252 5.71428571,53.3253615 C7.1252878,51.9063434 9.01367903,50.587667 11.4285714,50 C10.7616629,51.5193384 10.2702688,52.9383351 9.94735515,54.2857143 Z M16.493072,50.1280229 C17.9488668,50.091445 19.6177047,50.054867 21.4285714,50 C20.7480229,51.1338992 20.2450103,52.3227019 19.9431814,53.5297754 C18.0139692,53.9565124 16.1143346,54.2247388 14.2857143,54.2857143 C14.6466981,53.0237739 15.2266548,51.6581897 16.0314785,50.1402217 C16.0314785,50.1402217 16.493072,50.1280229 16.493072,50.1280229 Z M26.4061614,40 C27.2664486,40 28.1025082,40.2440035 28.9022174,40.7319916 C29.8836787,41.3388845 30.7439658,42.2648401 31.4285714,43.4035292 C30.4895129,43.6287631 29.5928753,43.9290751 28.7325881,44.2857143 C27.1937477,43.1344872 25.679153,41.8831812 24.2857143,40.4942572 C25.000618,40.181426 25.7094511,40 26.4061614,40 Z M30.6332916,37.4010772 C30.4565611,37.3224695 30.2356701,37.2326633 30,37.1428571 C31.0824963,37.1821442 32.1428571,37.2494862 33.1811487,37.3617565 C33.4609794,38.2318306 33.8512445,39.1186938 34.2857143,40 C33.2326878,38.933457 32.0029308,38.0297372 30.6332916,37.4010772 Z M38.5714286,35.7142857 C37.6762606,35.4091682 36.7543167,35.13869 35.819045,34.9167693 C35.6653844,33.5367502 35.6787523,32.2330001 35.8724765,31.0402207 C35.932602,30.6934735 35.9994214,30.3467472 36.0795687,30 C37.0816598,31.8932016 37.9033945,33.8072076 38.5714286,35.7142857 Z M45.7142857,47.7183856 C46.6287825,47.5422174 47.5270617,47.3484131 48.4036851,47.1428571 C48.7824675,49.1337563 49.3181981,51.0659327 50,52.8571429 C48.2846266,51.8705026 46.8723052,50.690058 45.8062987,49.6622959 C45.7846429,49.0339118 45.7521591,48.3820421 45.7142857,47.7183856 Z M39.5741015,42.6773792 C38.5811901,41.3237093 37.756144,39.9363379 37.1428571,38.5714286 C38.3256466,38.8522797 39.4791953,39.178055 40.5962755,39.5487711 C40.9467032,40.6665307 41.2022248,41.7674565 41.4285714,42.8571429 C40.8079908,42.7841118 40.1873883,42.722337 39.5741015,42.6773792 Z M44.8880857,42.0047643 C44.9643,42.0523786 45.0404857,42.1000071 45.1119143,42.1476214 C45.0547571,42.1904643 44.9976286,42.2333214 44.9357143,42.28095 C44.9214143,42.1904643 44.9071429,42.1000071 44.8880857,42.0047643 Z M26.4439483,50.2470896 C27.9607277,50.1773967 29.5309484,50.0950271 31.1279096,50 C31.2281369,50.0633451 31.3283442,50.133019 31.4285714,50.2027119 C29.069923,51.2353337 26.6711435,52.122279 24.2857143,52.8571429 C24.492864,52.5023876 24.7267143,52.1476323 24.9873253,51.8055156 C25.414955,51.2353337 25.9160913,50.728535 26.4439483,50.2470896 Z M40.5936008,58.2018195 C40.4761644,57.1340364 40.2804892,56.0838889 39.941272,55.0865252 C39.4194325,53.5846274 38.4279061,52.2704735 37.1428571,51.0560436 C37.8343053,50.7098959 38.5061644,50.3578872 39.1845988,50 C39.8630137,50.7333573 40.5870646,51.4432531 41.3372211,52.1179305 C41.3763796,53.4027622 41.3828767,54.6347749 41.3894129,55.7905601 C41.3894129,56.7644449 41.4024658,57.6855284 41.4285714,58.5714286 C41.1480626,58.4306251 40.87409,58.3074045 40.5936008,58.2018195 Z M58.9830559,23.2479283 C55.647698,23.3265974 52.802673,24.7306767 50.7627088,27.3088011 C48.6924904,29.9232372 47.6573994,34.044587 47.5484405,38.5714286 C46.2469813,37.6939222 44.8849955,36.8889845 43.4624831,36.1869903 C42.4394683,32.5679208 40.8958844,28.8580905 38.5714286,25.2571769 C40.4116167,22.1646258 43.3293172,19.4110074 46.8280953,17.6438483 C51.3559535,15.3441068 56.0774862,15.0899255 59.7760222,16.9357719 C61.0956412,17.5954268 62.094449,18.3942822 62.8571429,19.259715 C62.16707,20.6214005 61.3801328,21.964912 60.526658,23.2963499 C60.018147,23.2539924 59.5036432,23.2297725 58.9830559,23.2479283 Z M51.4285714,35.7142857 C51.8378528,33.343585 52.6102313,31.3043018 53.785316,29.8768074 C55.0330043,28.3536827 56.637175,27.4360187 58.5714286,27.1428571 C56.5513618,29.8067002 54.3464193,32.4068026 52.1481113,34.9176794 C51.9170909,35.1789705 51.6728213,35.4466281 51.4285714,35.7142857 Z M52.3112718,42.8571429 C52.0325436,42.6150022 51.7537979,42.3728277 51.4750523,42.1362962 C51.4576307,41.8828696 51.4401916,41.635086 51.4285714,41.3816593 C52.4855052,40.4411594 53.4262544,39.5006595 54.2857143,38.5714286 C53.9721429,39.7878763 53.763101,41.0719213 53.6237108,42.4066179 C53.1939721,42.5586739 52.7642509,42.7163728 52.3112718,42.8571429 Z M53.1761786,48.5714286 C53.4476071,48.9116796 53.7095214,49.2627706 53.9666786,49.6138291 C53.9666786,50.2187594 53.9666786,50.8236735 53.9666786,51.4285714 C53.6619071,50.5104008 53.3904786,49.5598076 53.1761786,48.5714286 Z M21.7081938,42.8571429 C22.9847917,44.2048163 24.3465022,45.405582 25.7142857,46.5105424 C25.5440605,46.6446506 25.3616894,46.7787971 25.1975736,46.9193051 C22.7537822,47.0278717 20.4923984,47.0981352 18.5714286,47.1428571 C18.8996784,46.6191089 19.2279464,46.1017797 19.5926887,45.54609 C20.285699,44.4986319 20.9908734,43.6108429 21.7081938,42.8571429 Z M5.7198961,57.1428571 C6.59811156,57.4078313 7.49526209,57.6433737 8.43665129,57.8082693 C8.91050173,57.8848166 9.40328724,57.914266 9.88346833,57.9672644 C9.99719244,62.2188992 12.6381316,65.6932423 17.1428571,69.8035481 C16.991225,69.8329799 16.8459045,69.8683298 16.6942914,69.8977615 C14.9757874,70.1981209 13.5036857,69.838898 12.2274548,68.7906964 C9.3401135,66.4234361 5.98525235,63.0138923 5.7198961,57.6787236 C5.70727273,57.5020447 5.7198961,57.3195007 5.7198961,57.1428571 Z M45.8304692,72.8571429 C45.3195721,72.6541889 44.808639,72.4702631 44.2857143,72.3307108 C45.3315998,68.1381685 45.7703848,63.8505236 45.5299574,59.6452894 C45.4518045,58.3260126 45.4457817,56.7783793 45.4397768,54.9897358 C45.433754,54.7614173 45.433754,54.5267245 45.433754,54.2857143 C47.784021,56.0553107 50.2604616,57.3238585 52.8030453,58.078647 C52.8210959,58.1103479 52.8391284,58.129395 52.8571429,58.1547786 C52.6587853,61.4466247 52.1899581,64.4150118 51.0358775,66.5081243 C49.8938246,68.5821707 48.1025833,70.9162934 45.8304692,72.8571429 Z M75.7142857,35.1286828 C77.7123091,34.2567898 79.5188471,34.0690746 81.1977092,34.5292439 C84.0000512,35.2982332 86.617285,37.9563452 89.1898026,42.6489165 C90.3643759,44.7923466 90.2303228,48.1407398 88.991921,51.4285714 C87.3769257,50.8473155 85.927869,50.3992258 84.8298974,50.0662102 C82.263757,49.2851413 79.2443446,49.206415 76.3526466,49.690798 C76.4292293,49.490985 76.5122273,49.2911721 76.5760749,49.0974261 C78.1910702,44.289817 77.2654909,39.052283 75.7142857,35.1286828 Z M66.2298774,1.42857143 C67.7549533,5.94174388 67.2610119,10.5039043 65.5506849,14.9986981 C64.6430635,14.2087239 63.6057607,13.5167409 62.4511316,12.9411203 C57.622728,10.546764 51.5903123,10.8100582 45.9160438,13.6637278 C42.186681,15.5375582 39.0438944,18.2687296 36.8334578,21.4285714 C35.6664922,19.9833747 34.3328172,18.5687842 32.8571429,17.1909542 C46.3976302,5.12116344 56.7151066,1.42244311 66.2298774,1.42857143 Z M29.3737821,20 C31.2728988,21.7873619 32.9080464,23.6461847 34.2857143,25.5440039 C33.6483879,27.0063697 33.1848585,28.5207371 32.9273594,30.0480904 C32.7342495,31.1919919 32.6827419,32.4073933 32.7599743,33.6682645 C28.7622192,33.2523092 24.3588734,33.5577681 19.5370746,34.2857143 C19.1379345,33.3887771 18.8289277,32.4203791 18.5714286,31.4064722 C19.8975695,29.8531278 21.3202944,28.2672604 22.8331527,26.6424161 C25.0927643,24.2181452 27.2686738,22.0213209 29.3737821,20 Z M59.005455,88.510469 C56.8671861,82.2749453 53.7868785,77.6459025 50,74.8837277 C52.1444419,72.8771888 53.8798459,70.6166441 55.0822305,68.4894457 C56.0180776,66.8385224 56.6006857,64.9335744 56.9787469,62.8571429 C58.1935148,63.9175703 59.8979234,64.9271928 62.3398797,65.6193557 C63.2819184,71.13098 62.9844599,78.128502 61.0569295,88.5676175 C60.3937558,88.5803235 59.7119886,88.5612549 59.005455,88.510469 Z M75.250763,67.3920927 C73.4232581,72.0467009 73.1326644,76.0345626 74.3596284,79.4927731 C74.9795422,81.2561896 75.9611095,82.7516027 77.1428571,84.0227543 C72.3900232,87.219261 69.7876212,87.3625999 69.322652,87.3625999 C69.2710038,87.3625999 69.2451797,87.3625999 69.2516115,87.3625999 C69.2516115,87.3625999 68.6510706,87.2504411 68.6510706,87.2504411 C68.6510706,87.2504411 68.0957074,87.4809648 68.0957074,87.4809648 C67.9278023,87.5495125 66.4619122,88.1352431 64.2857143,88.5714286 C65.9582359,79.7233342 66.4167152,73.0125002 65.5772288,67.2114049 C67.5274224,67.4107858 69.7746995,67.448172 72.3642185,67.2736904 C72.738755,67.2550159 73.087448,67.1802621 73.4555334,67.1428571 C74.0432106,67.2550159 74.637281,67.3422381 75.250763,67.3920927 Z M83.9417242,77.6592206 C82.4287132,79.1389814 81.0397262,80.3812007 79.762318,81.4285714 C78.8383978,80.4664401 78.0880963,79.3581815 77.6416136,78.061121 C76.6618854,75.2478365 77.1269521,71.649001 79.0244059,67.3498907 C79.4957045,67.3011511 79.9669474,67.2159117 80.4382274,67.1428571 C81.8706145,67.4899347 83.340244,67.7274213 84.8594683,67.8309472 C86.5647193,67.9466397 88.0405063,68.7930602 89.2372905,70.3458755 C89.5225253,70.7112212 89.7643786,71.1253065 90,71.5393918 C88.406365,73.2383162 86.434482,75.2113001 83.9417242,77.6592206 Z M92.4116673,85.9751771 C92.3265798,86.363912 92.2349742,86.746446 92.143349,87.1289984 C90.3175199,87.2092036 88.504766,86.9438769 86.9080098,86.2651965 C85.5991652,85.7160328 84.1921773,85.0620082 82.8571429,84.2660651 C84.13326,83.235652 85.4879074,82.0509924 86.9276227,80.6997587 C88.9367022,78.8055066 90.6447556,77.1766183 92.1171984,75.7142857 C93.033372,79.1448746 93.0595422,83.044385 92.4116673,85.9751771 Z M81.0877059,3.97967837 C98.102316,8.91931546 105.714286,25.432762 105.714286,39.6014036 C105.714286,45.6102546 104.372846,49.7432917 101.714898,52.8571429 C103.636575,40.3892267 100.523164,30.1910642 93.198215,25.2951898 C87.6452564,21.5810595 77.4439401,21.6248597 68.8898589,24.2509805 C68.8836071,24.1509433 68.896092,24.0446409 68.8836071,23.9446038 C68.6901946,21.8812085 68.0974535,19.9928828 67.1428571,18.3359201 C69.4638821,13.0211203 70.6181427,7.2373669 69.1269404,1.42857143 C73.1325802,1.84125049 77.0571151,2.80418081 81.0877059,3.97967837 Z M101.079107,59.0488157 C106.756594,55.0807655 110,49.4173999 110,39.9474641 C110,24.478833 101.570903,6.4330995 82.7330323,0.987120743 C77.752758,-0.453549028 73.0401855,-1.42229806 68.396098,-1.70175815 C68.34007,-1.82594194 68.2902611,-1.95014435 68.228014,-2.08053174 C65.084226,-8.48287096 59.3071025,-12.8234911 52.3782859,-13.9723122 C44.4161072,-15.2887982 36.2111031,-12.4198658 29.8612613,-6.07965576 C24.7191408,-0.956562289 20.5855058,3.93057081 17.8837228,9.18405166 C13.9928759,8.12837771 10.6685657,8.28361675 8.09127695,8.84251831 C1.64803645,10.2397256 -3.75554632,15.0274893 -6.71879898,21.982452 C-9.71318267,28.9995624 -9.8065683,37.5007865 -7.11099322,44.4681936 C-12.8818863,48.8833687 -17.1213322,54.751658 -18.1920906,62.308966 C-20.426993,78.0943161 -12.7324745,90.4642582 3.45962764,97.1522238 C8.59552909,99.2759771 14.25434,100.958841 20.0937106,99.9776807 C20.6166387,101.163766 21.2827558,102.337428 22.0796049,103.492445 C25.578237,108.559652 31.8782886,111.428571 38.9564759,111.428571 C40.7369342,111.428571 42.5671827,111.242294 44.4161072,110.869711 C51.5689986,109.422815 57.2838749,105.479581 60.7327167,99.8597117 C65.3518905,104.430113 71.4589629,104.653685 78.5246933,104.299722 C89.3692333,103.759481 93.1355672,95.7363983 94.7665988,89.8805236 C96.7960643,89.4210287 98.7632639,88.5827043 100.50637,87.3531619 C105.2314,84.030901 107.547224,78.6159402 107.024296,72.1204911 C106.576072,66.500588 104.198,62.2593 101.079107,59.0488157 Z" id="Fill-1" fill="#019494" mask="url(#mask-2)"></path>
                    </g>
                </g>
            </g>
        </g>
    </g>
</svg>